PathFileType	4	(X/Y/Z)	22_2_21_p1_0-195_filt_butterworth.trc
DataRate	CameraRate	NumFrames	NumMarkers	Units	OrigDataRate	OrigDataStartFrame	OrigNumFrames
59.0	59.0	5	27	m	59.0	0	195
Frame#	Time	RHip			RKnee			RAnkle			RBigToe			RSmallToe			RHeel			LHip			LKnee			LAnkle			LBigToe			LSmallToe			LHeel			Neck			Head			Nose			RShoulder			RElbow			RWrist			RThumb			RIndex			RPinky			LShoulder			LElbow			LWrist			LThumb			LIndex			LPinky			
		X1	Y1	Z1	X2	Y2	Z2	X3	Y3	Z3	X4	Y4	Z4	X5	Y5	Z5	X6	Y6	Z6	X7	Y7	Z7	X8	Y8	Z8	X9	Y9	Z9	X10	Y10	Z10	X11	Y11	Z11	X12	Y12	Z12	X13	Y13	Z13	X14	Y14	Z14	X15	Y15	Z15	X16	Y16	Z16	X17	Y17	Z17	X18	Y18	Z18	X19	Y19	Z19	X20	Y20	Z20	X21	Y21	Z21	X22	Y22	Z22	X23	Y23	Z23	X24	Y24	Z24	X25	Y25	Z25	X26	Y26	Z26	X27	Y27	Z27	
0	0.0	0.27615374970777407	0.6561259922203095	1.0325042630195072	0.28737287878946655	0.7852214983680785	1.432477597714959	0.2962995274599809	0.9428629168502961	1.829388377000273	0.24982062280591488	0.7092783912088523	1.8738346248019513	0.3074011629377619	0.75332211122591	1.8802071211799887	0.28853184750709543	1.007888646243479	1.878354167096358	0.042378237871517524	0.6943343966045679	1.0505826429252914	0.08378172737428938	0.7986585052077307	1.4228364315250024	0.09359700165269517	0.9012978724504832	1.8142517735138843	0.10211335101888033	0.7594102725912196	1.8869984541957643	0.05030070162269369	0.7893313537302443	1.877641377099388	0.1252193418178271	0.9724030846827987	1.866898357883412	0.11625061465640976	0.4589640771268494	0.4888919897796422	0.09853747157590567	0.33390179293272626	0.2532939196269489	0.08508526382342987	0.32523070991169994	0.407737842855457	0.26734229715893476	0.46346573713643874	0.5691112742574469	0.32487881148929015	0.4300530059634216	0.8149765774020524	0.21853528744565046	0.4620049624916005	1.0473878976176425	0.11334586986883638	0.4790700566706383	1.1306836923966102	0.11417166247967564	0.4782761205502275	1.1425206913425585	0.13302142583306253	0.4809359136508002	1.1509920584804116	-0.041929903306181966	0.4884045710509235	0.5666666456213378	-0.04709830352742476	0.5302924967791657	0.8088804957591706	0.058874183470495035	0.4864140952277889	1.022108738102877	0.12457055330721414	0.47310317692785736	1.0997750713603025	0.12187524543690448	0.4769745967719631	1.1386243326742893	0.11918444647330564	0.49254146050833325	1.1409442533215506
1	0.0169491525423728	0.2735215022972012	0.6564506844241733	1.033989116770228	0.2873399226794206	0.785105046474042	1.4322981737245335	0.29626701509549197	0.9429665161495367	1.8293785581782416	0.2491917803430753	0.708035875907272	1.8734351448146602	0.30781184384301397	0.75426394371638	1.8815244844011836	0.2881121559701738	1.0073241313248735	1.8781278006514939	0.04237587218843228	0.6941867736417815	1.0504469911904661	0.08405863169203764	0.800165307226655	1.4263572918303673	0.09419147908783469	0.9028149322781573	1.814694234650869	0.10189840031680036	0.7574008541618549	1.885024678176174	0.05036698284117827	0.7894302674888828	1.8776115454171594	0.1252956427529347	0.9718112202575853	1.8667110882243512	0.11621263999986382	0.4590092034647152	0.4889233918645147	0.09865549742914989	0.3337663745047741	0.2532704837610035	0.08264536781044797	0.3252296197637201	0.4078775295930157	0.2662337007121624	0.4634822418821979	0.5695275664379226	0.32488631470206225	0.43027872059883987	0.8164069961179479	0.21645599216742578	0.4620106261436985	1.0474748517801362	0.11361318354812026	0.4784475533109695	1.1283806927554234	0.11415177398489063	0.4783536232997051	1.1413200129212266	0.13348018424905103	0.48209850378777075	1.1507001393259575	-0.04156923093893285	0.4885179698436759	0.5667983176373447	-0.04709645894956124	0.530344828591591	0.8089404779685645	0.062053551385196616	0.49408807900937857	1.0226818722074638	0.1232619808800485	0.47273150916104734	1.0999211827655708	0.12189049423190577	0.47699815062393236	1.1382304363877438	0.1190801338125542	0.4924758886552921	1.1410134013548268
2	0.0338983050847457	0.27191799384752346	0.6567469830745257	1.035350919128645	0.2873222058706719	0.7850284689382756	1.4321913721487785	0.2962405005278882	0.9430289497762725	1.8293890471402583	0.24776435000503255	0.7049629428596562	1.8723929776081765	0.3081670592107881	0.7554603145637105	1.8822785798816466	0.2879845435727043	1.0073860986129235	1.8781118945648416	0.04237473327863602	0.6941017076448124	1.0503703120462822	0.08435788409434376	0.8013675644754128	1.4288709601580676	0.09552701020083093	0.9065427234475475	1.8158213845267746	0.10100435189338786	0.7532943178060675	1.8823891120913043	0.05038935721649701	0.7894346353461437	1.8775510880956519	0.12500381846018888	0.9734433776570852	1.867309509140744	0.11617848442188539	0.45906048274746236	0.4889412870692946	0.09874852059985985	0.33385475852288576	0.2532696442582956	0.08114117442722793	0.32523664038111444	0.40795019598962085	0.26612100215626544	0.463589805473596	0.5703574737503376	0.3249524127527143	0.43037949043222423	0.8177698297789011	0.21595085288929564	0.4620680612159913	1.0474921393556973	0.11378811378072728	0.4780481822699468	1.126976127264605	0.11412748817355205	0.4784261176914421	1.1404350532368002	0.1345348530815305	0.48475845278199897	1.1504519798316657	-0.041272309906945054	0.4886803720571164	0.5669369026125151	-0.04709249360798551	0.5303710215721138	0.8089783694108791	0.0641917819861888	0.49895476001913497	1.023066883845879	0.12230820897806473	0.472452334562266	1.100028868647059	0.1219619420358103	0.4769197774560364	1.137244340406279	0.11912680897370208	0.4924685397329955	1.1407071394967445
3	0.0508474576271186	0.2714457584752837	0.6569386934172066	1.0362347125680622	0.28732157605633507	0.7849900192382937	1.432172310275373	0.29622319574358574	0.9430494572986066	1.8294169851110769	0.245806149918656	0.7005793529571999	1.870876838087429	0.30837259216225416	0.7565745727394942	1.8821768121860714	0.2886541281466403	1.0092625935219952	1.878664133772479	0.042379506045755445	0.6940879960923335	1.0503534515769508	0.08457778632050487	0.8020300100679446	1.4297952575388346	0.09735367401507658	0.9118022494285803	1.817421116072505	0.09957531142893197	0.7478895250681425	1.8796854328855308	0.05035855300045633	0.7893216625372117	1.8774649522101399	0.12416942393931729	0.9784587382648284	1.8690306180563947	0.11615524658904108	0.45908975184317413	0.48893684022923545	0.09882224790408954	0.334139028583451	0.253276493208411	0.08064398349905164	0.3252445182630772	0.40795810319355613	0.266706279860521	0.46376094252297634	0.571479405363229	0.3249608668768342	0.43034113691771264	0.8187200502584245	0.2169094704009637	0.4621573201693534	1.0474508904227875	0.11385800334099681	0.4778783250639651	1.1265323963296558	0.1140779088545005	0.4784888712452915	1.1397505132437207	0.1360665273933348	0.48857981504387826	1.1505090199387775	-0.04106576208686575	0.4888045393903069	0.5670417366409966	-0.04708878273226873	0.5303764899001596	0.8089923910585117	0.06505743198234991	0.5008355541228379	1.0232233358346268	0.1215842959823574	0.47222790056515607	1.100075832832711	0.12207262949359973	0.47676938000813573	1.1358406821843905	0.11952500677600687	0.4925430358518086	1.1398592295222172
4	0.0677966101694915	0.27153897926096066	0.6570269589421148	1.0365324021469744	0.28732887696756887	0.784964465214415	1.4322153084701423	0.2962135653910441	0.943056569337333	1.8294456496789513	0.24431638583133206	0.6971107004184119	1.8696499436635619	0.3084424889178226	0.7571766780094683	1.8816160060169205	0.29047307579237935	1.0138465786714226	1.880058240757036	0.0423884647253182	0.6940968138673128	1.0503654052605027	0.08470490352034898	0.8021701035673264	1.4293419871837627	0.09874674178885275	0.9159191750683597	1.8186727635970281	0.09839216017181188	0.7438187421879339	1.8779768945009534	0.05030871652809871	0.7891615363189951	1.877389047428666	0.1231044005255542	0.9853044274798849	1.8712786942459905	0.11614708026469299	0.4590780573271784	0.48891663819372405	0.09887100548982061	0.3343831138295602	0.253253756629511	0.080739397204609	0.3252341482710629	0.4079396964646536	0.2672102246095081	0.46391696207966526	0.5723805169754718	0.32460250523440354	0.4302834147689071	0.8190893825472264	0.21807250410885	0.46221018969357214	1.0474096029149664	0.11386635399858971	0.4778274304546548	1.1265648091309362	0.11401544384632305	0.47854653986678536	1.1392212339012013	0.1373531121164588	0.4917590675829156	1.150823441501927	-0.040935825207438825	0.48883131024695353	0.5670873778842962	-0.04708890301033239	0.5303833792327655	0.8089962864995137	0.06481516760429144	0.5011687367014266	1.0232244576377967	0.1210152168566078	0.4720411220914924	1.100058378124031	0.12216045753837891	0.4766058693286428	1.1347292020937374	0.12029638774583368	0.4926525131085254	1.1387681063614419
